<svg width="31" height="32" viewBox="0 0 31 32" fill="none" xmlns="http://www.w3.org/2000/svg">
<g filter="url(#filter0_d)">
<circle cx="15" cy="15" r="14" fill="white"/>
<circle cx="15" cy="15" r="13.25" stroke="#9F5353" stroke-width="1.5"/>
</g>
<path d="M15 13.7541C11.8545 13.7541 9.51853 13.5005 8.04729 13C7.89673 14.5945 8.10841 16.443 8.64324 17.6853C9.72697 20.2042 12.3249 21.9062 13.9879 22.7047V22.8686C13.9879 23.4933 14.441 24 15 24C15.5588 24 16.0121 23.4933 16.0121 22.8686V22.7047C17.6751 21.9062 20.2731 20.2042 21.3567 17.6853C21.8916 16.443 22.1033 14.5945 21.9527 13C20.4816 13.5005 18.1456 13.7541 15 13.7541Z" fill="#9F5353"/>
<path d="M23.6376 10.849C23.1077 9.60079 22.4571 8.71735 21.8527 8.4254C21.1838 8.10235 18.9245 7.83962 16.2656 7.75928C16.1583 7.47048 16.0354 7.21277 15.9019 6.98214C15.3878 6.09496 14.7143 5.61395 14.1469 5.3541C13.2018 4.92138 12.3627 5.00215 12.2702 5.01268L12.4296 6.40176L12.4235 6.40251C12.4292 6.40187 13.0025 6.35075 13.6165 6.6498C13.8022 6.74025 13.9722 6.85409 14.128 6.98893C14.3615 7.19102 14.5614 7.44227 14.7268 7.74255C11.7719 7.79464 9.16681 8.07436 8.43989 8.42534C7.83558 8.7173 7.18495 9.60074 6.65506 10.849C6.20075 11.919 5.98792 12.8924 6.00053 13.2177C6.11576 13.3832 7.26546 14.6596 15.1463 14.6596C23.0272 14.6596 24.1769 13.3832 24.2921 13.2177C24.3047 12.8924 24.0919 11.919 23.6376 10.849Z" fill="#9F5353"/>
<defs>
<filter id="filter0_d" x="0" y="1" width="30" height="30" filterUnits="userSpaceOnUse" color-interpolation-filters="sRGB">
<feFlood flood-opacity="0" result="BackgroundImageFix"/>
<feColorMatrix in="SourceAlpha" type="matrix" values="0 0 0 0 0 0 0 0 0 0 0 0 0 0 0 0 0 0 127 0"/>
<feOffset dy="1"/>
<feGaussianBlur stdDeviation="0.5"/>
<feColorMatrix type="matrix" values="0 0 0 0 0 0 0 0 0 0 0 0 0 0 0 0 0 0 0.23 0"/>
<feBlend mode="normal" in2="BackgroundImageFix" result="effect1_dropShadow"/>
<feBlend mode="normal" in="SourceGraphic" in2="effect1_dropShadow" result="shape"/>
</filter>
</defs>
</svg>
